<svg id="Layer_1" enable-background="new 0 0 64 64" height="512" viewBox="0 0 64 64" width="512" xmlns="http://www.w3.org/2000/svg"><g><path d="m58 50h-.11c1.3-1.272 2.11-3.042 2.11-5 0-3.86-3.14-7-7-7s-7 3.14-7 7c0 1.958.81 3.728 2.11 5h-.11c-2.757 0-5 2.243-5 5v8c0 .552.448 1 1 1h18c.552 0 1-.448 1-1v-8c0-2.757-2.243-5-5-5zm-10-5c0-2.757 2.243-5 5-5s5 2.243 5 5-2.243 5-5 5-5-2.243-5-5zm13 17h-3v-3c0-.552-.448-1-1-1s-1 .448-1 1v3h-6v-3c0-.552-.448-1-1-1s-1 .448-1 1v3h-3v-7c0-1.654 1.346-3 3-3h10c1.654 0 3 1.346 3 3z"/><path d="m16 50h-.11c1.3-1.272 2.11-3.042 2.11-5 0-3.86-3.14-7-7-7s-7 3.14-7 7c0 1.958.81 3.728 2.11 5h-.11c-2.757 0-5 2.243-5 5v8c0 .552.448 1 1 1h18c.552 0 1-.448 1-1v-8c0-2.757-2.243-5-5-5zm-10-5c0-2.757 2.243-5 5-5s5 2.243 5 5-2.243 5-5 5-5-2.243-5-5zm13 17h-3v-3c0-.552-.448-1-1-1s-1 .448-1 1v3h-6v-3c0-.552-.448-1-1-1s-1 .448-1 1v3h-3v-7c0-1.654 1.346-3 3-3h10c1.654 0 3 1.346 3 3z"/><path d="m27.11 12h-.11c-2.757 0-5 2.243-5 5v8c0 .552.448 1 1 1h18c.552 0 1-.448 1-1v-8c0-2.757-2.243-5-5-5h-.11c1.3-1.272 2.11-3.042 2.11-5 0-3.86-3.14-7-7-7s-7 3.14-7 7c0 1.958.81 3.728 2.11 5zm9.89 2c1.654 0 3 1.346 3 3v7h-3v-3c0-.552-.448-1-1-1s-1 .448-1 1v3h-6v-3c0-.552-.448-1-1-1s-1 .448-1 1v3h-3v-7c0-1.654 1.346-3 3-3zm-5-12c2.757 0 5 2.243 5 5s-2.243 5-5 5-5-2.243-5-5 2.243-5 5-5z"/><path d="m40.654 55.46c-5.536 2.043-11.771 2.043-17.308 0-.517-.192-1.093.073-1.284.592-.191.518.074 1.093.592 1.284 2.99 1.104 6.135 1.664 9.346 1.664s6.355-.56 9.346-1.664c.518-.191.783-.766.592-1.284s-.766-.783-1.284-.592z"/><path d="m6.541 38.192c.066 0 .133-.006.2-.02.542-.11.891-.638.781-1.179-.347-1.701-.522-3.38-.522-4.993 0-10.439 6.581-19.872 16.375-23.472.518-.19.784-.765.593-1.284-.19-.518-.764-.784-1.284-.593-10.577 3.889-17.684 14.075-17.684 25.349 0 1.747.189 3.561.562 5.392.096.474.513.8.979.8z"/><path d="m40.625 8.528c9.794 3.6 16.375 13.033 16.375 23.472 0 1.613-.175 3.292-.522 4.993-.11.541.239 1.069.781 1.179.067.014.134.02.2.02.466 0 .882-.327.979-.801.373-1.83.562-3.644.562-5.391 0-11.274-7.107-21.46-17.685-25.349-.521-.192-1.094.075-1.284.593-.19.519.076 1.094.594 1.284z"/><path d="m43 39c0-6.065-4.935-11-11-11s-11 4.935-11 11v10c0 .552.448 1 1 1h10c6.065 0 11-4.935 11-11zm-20 0c0-4.962 4.038-9 9-9s9 4.038 9 9-4.038 9-9 9h-9z"/><path d="m30 36h7c.552 0 1-.448 1-1s-.448-1-1-1h-7c-.552 0-1 .448-1 1s.448 1 1 1z"/><path d="m27 40h2c.552 0 1-.448 1-1s-.448-1-1-1h-2c-.552 0-1 .448-1 1s.448 1 1 1z"/><path d="m37 38h-5c-.552 0-1 .448-1 1s.448 1 1 1h5c.552 0 1-.448 1-1s-.448-1-1-1z"/><path d="m33 43c0-.552-.448-1-1-1h-5c-.552 0-1 .448-1 1s.448 1 1 1h5c.552 0 1-.448 1-1z"/></g></svg>