<svg height="511pt" viewBox="-35 1 511 511.99975" width="511pt" xmlns="http://www.w3.org/2000/svg"><path d="m366.671875 241.238281c3.738281 1.546875 8.039063.691407 10.898437-2.167969l60-60c3.90625-3.902343 3.90625-10.234374 0-14.140624l-60-60c-2.859374-2.859376-7.164062-3.714844-10.898437-2.167969s-6.171875 5.195312-6.171875 9.238281v20h-20c-28.171875 0-55.492188 7.566406-80 22.035156v-74.035156h20c4.042969 0 7.691406-2.4375 9.238281-6.171875 1.546875-3.738281.691407-8.039063-2.167969-10.898437l-60-60c-3.902343-3.90625-10.234374-3.90625-14.140624 0l-60 60c-2.859376 2.859374-3.714844 7.160156-2.167969 10.898437 1.546875 3.734375 5.195312 6.171875 9.238281 6.171875h20v74.035156c-24.511719-14.46875-51.828125-22.035156-80-22.035156h-20v-20c0-4.042969-2.4375-7.691406-6.171875-9.238281-3.738281-1.550781-8.039063-.691407-10.898437 2.167969l-60 60c-3.90625 3.902343-3.90625 10.234374 0 14.140624l60 60c2.859374 2.859376 7.160156 3.714844 10.898437 2.167969 3.734375-1.546875 6.171875-5.195312 6.171875-9.238281v-20h20c32.085938 0 61.089844 19.554688 73.554688 48.5625-33.65625 12.925781-61.0625 39.789062-74.441407 73.539062-2.039062 5.132813.472657 10.945313 5.609375 12.980469 5.132813 2.039063 10.945313-.476562 12.980469-5.609375 15.996094-40.332031 55.660156-69.472656 102.296875-69.472656 62.015625 0 110 50.890625 110 110 0 33.613281-15.539062 65.253906-41.398438 85.960938-6.574218-32.5625-35.53125-55.960938-68.601562-55.960938-33.09375 0-62.03125 23.417969-68.601562 55.953125-14.910157-11.929687-26.632813-27.617187-33.695313-45.425781-2.035156-5.132813-7.847656-7.644532-12.984375-5.609375-5.132812 2.035156-7.644531 7.847656-5.609375 12.980469 19.019531 47.957031 65.898437 82.101562 120.890625 82.101562 72.972656 0 130-59.582031 130-130 0-55.683594-34.824219-102.714844-83.554688-121.4375 12.460938-29.007812 41.46875-48.5625 73.554688-48.5625h20v20c0 4.042969 2.4375 7.691406 6.171875 9.238281zm-196.132813 238.769531c1-26.242187 22.53125-48.007812 49.960938-48.007812 27.4375 0 48.957031 21.769531 49.960938 48.007812-15.382813 7.851563-32.535157 11.992188-49.960938 11.992188s-34.578125-4.140625-49.960938-11.992188zm169.960938-288.007812c-40.894531 0-77.773438 25.414062-92.824219 62.851562-8.886719-1.890624-17.988281-2.851562-27.175781-2.851562s-18.292969.960938-27.175781 2.851562c-15.050781-37.4375-51.929688-62.851562-92.824219-62.851562h-30c-5.523438 0-10 4.476562-10 10v5.859375l-35.859375-35.859375 35.859375-35.859375v5.859375c0 5.523438 4.476562 10 10 10h30c30.089844 0 59.125 9.9375 83.964844 28.742188 3.027344 2.292968 7.089844 2.671874 10.488281.980468 3.398437-1.6875 5.546875-5.15625 5.546875-8.953125v-102.769531c0-5.523438-4.476562-10-10-10h-5.859375l35.859375-35.859375 35.859375 35.859375h-5.859375c-5.523438 0-10 4.476562-10 10v102.769531c0 3.796875 2.148438 7.265625 5.546875 8.953125 3.398437 1.691406 7.460937 1.3125 10.488281-.980468 24.839844-18.804688 53.871094-28.742188 83.964844-28.742188h30c5.523438 0 10-4.476562 10-10v-5.859375l35.859375 35.859375-35.859375 35.859375v-5.859375c0-5.523438-4.476562-10-10-10zm0 0"/><path d="m270.5 362c0-27.570312-22.429688-50-50-50s-50 22.429688-50 50 22.429688 50 50 50 50-22.429688 50-50zm-50 30c-16.542969 0-30-13.457031-30-30s13.457031-30 30-30 30 13.457031 30 30-13.457031 30-30 30zm0 0"/><path d="m110.5 382c0 5.523438-4.476562 10-10 10s-10-4.476562-10-10 4.476562-10 10-10 10 4.476562 10 10zm0 0"/></svg>