<?xml version="1.0" encoding="UTF-8"?>
<svg xmlns="http://www.w3.org/2000/svg" id="Layer_1" data-name="Layer 1" viewBox="0 0 512 512" width="512" height="512"><path d="M8,316.818H258a8,8,0,0,0,8-8V248.16a44.831,44.831,0,0,0-31.059-43.136l-62.924-20.977V165.132A62.63,62.63,0,0,0,189.9,141.743a26.067,26.067,0,0,0,19.383-42.079c.96-4.511,2.415-11.984,3.07-16.418.208-1.418.414-2.747.609-4,1.827-11.779,3.034-19.56-4.356-33.473a86.254,86.254,0,0,0-157.818,12.7,8.012,8.012,0,0,0-.321,1.284c-2.118,12.93-.411,26.4,5.064,40.076a26.07,26.07,0,0,0,19.476,41.916A63.051,63.051,0,0,0,93.983,166.01v18.037L31.059,205.024A44.83,44.83,0,0,0,0,248.16v60.658A8,8,0,0,0,8,316.818Zm136.643-73.2H121.357l-2.041-11.668a8.054,8.054,0,0,0-.254-1.015L133,221.04l13.87,9.85Zm-21.56,16h19.834l7.207,41.2H115.877ZM250,248.16v52.658H222.984v-26.1a8,8,0,0,0-16,0v26.1H166.366l-7.743-44.265,2.694-15.4,16.016,11.374A8,8,0,0,0,189.965,246V206.9L229.881,220.2A29.05,29.05,0,0,1,250,248.16Zm-76.035-46.6v28.945l-27.148-19.278,17.936-12.738ZM109.983,175.01a62.936,62.936,0,0,0,46.034-.442v10.5L133,201.417l-23.017-16.345Zm84.846-51.325a62.72,62.72,0,0,0-.161-16.128,10.054,10.054,0,0,1,.161,16.128ZM66.152,62.986a70.255,70.255,0,0,1,128.322-9.713c4.893,9.215,4.38,12.53,2.675,23.516-.2,1.3-.413,2.665-.628,4.124-.356,2.417-1.009,6-1.672,9.414a26.064,26.064,0,0,0-5.134-.712c-7.28-23.525-15.654-35.779-26.24-38.456-4.872-1.233-12.412-.939-20.7,7.443a8.006,8.006,0,0,0-1.2,1.551C130.151,79.458,110.5,88.3,81.509,87.174a8,8,0,0,0-6.031,2.435,25.961,25.961,0,0,0-6.327.965A57.522,57.522,0,0,1,66.152,62.986Zm-.013,52.7a10.073,10.073,0,0,1,3.721-7.818,64.425,64.425,0,0,0,.07,15.689A10.074,10.074,0,0,1,66.139,115.681Zm20.828-12.416c31.324-.179,54.122-11.612,67.82-34.034,1.992-1.869,3.747-2.819,4.764-2.561.754.191,7.6,2.673,15.8,30.743a8.131,8.131,0,0,0,.3.844,46.832,46.832,0,0,1-71.756,55.2A48.129,48.129,0,0,1,86.967,103.265Zm14.28,95.226,17.937,12.738L92.035,230.507V201.562ZM16,248.16A29.048,29.048,0,0,1,36.118,220.2L76.035,206.9V246a8,8,0,0,0,12.632,6.523l16.016-11.374,2.694,15.4-7.742,44.265H59.016v-26.1a8,8,0,0,0-16,0v26.1H16Zm154.635,181.2a8,8,0,0,0-.531-8.277l-58.015-83.2a8,8,0,0,0-13.125,0l-58.015,83.2a8,8,0,0,0,6.563,12.576H78.864a126.4,126.4,0,0,0,86.591,78.081,8,8,0,0,0,5.884-14.749,87.021,87.021,0,0,1-44.4-63.332h36.6A8,8,0,0,0,170.635,429.358Zm-52.567-11.7a8,8,0,0,0-7.987,8.454,103.548,103.548,0,0,0,13.253,45.271,110.756,110.756,0,0,1-31.186-48.194,8,8,0,0,0-7.609-5.531h-21.7l42.683-61.217,42.685,61.217Zm223.3-335.013a8,8,0,0,0,.531,8.276l58.015,83.2a8,8,0,0,0,13.125,0l58.015-83.2a8,8,0,0,0-6.563-12.575H433.136A126.406,126.406,0,0,0,346.545.263a8,8,0,0,0-5.884,14.749,87.025,87.025,0,0,1,44.4,63.332h-36.6A8,8,0,0,0,341.365,82.643Zm52.567,11.7a8,8,0,0,0,7.987-8.454,103.548,103.548,0,0,0-13.253-45.27,110.753,110.753,0,0,1,31.186,48.193,8,8,0,0,0,7.609,5.531h21.7l-42.683,61.217L363.789,94.344Zm20.8,234.79a75.764,75.764,0,1,0-71.473,0A124,124,0,0,0,246,450.053V504a8,8,0,0,0,8,8H504a8,8,0,0,0,8-8V450.053A124,124,0,0,0,414.736,329.134Zm-44.311,13.129h17.15L399.664,429.4,379,454.049,358.336,429.4Zm-51.189-79.912A59.764,59.764,0,1,1,379,322.114,59.832,59.832,0,0,1,319.236,262.351ZM496,496H460.026V437.553a8,8,0,0,0-16,0V496H313.974V437.553a8,8,0,0,0-16,0V496H262V450.053a107.953,107.953,0,0,1,92.114-106.646L342,430.724a8,8,0,0,0,1.794,6.239l29.076,34.678a8,8,0,0,0,12.26,0l29.076-34.678A8,8,0,0,0,416,430.724l-12.114-87.317A107.953,107.953,0,0,1,496,450.053Z"/></svg>
